<svg width="24" height="24" viewBox="0 0 24 24" fill="none" xmlns="http://www.w3.org/2000/svg">
<path d="M21 9.37499H20.5519C20.2799 7.29936 19.2622 5.39351 17.6888 4.01279C16.1153 2.63207 14.0934 1.87073 12 1.87073C9.90663 1.87073 7.8847 2.63207 6.31123 4.01279C4.73775 5.39351 3.72014 7.29936 3.44812 9.37499H3C2.70163 9.37499 2.41548 9.49351 2.2045 9.70449C1.99353 9.91547 1.875 10.2016 1.875 10.5C1.87838 12.3134 2.36701 14.0928 3.29019 15.6537C4.21337 17.2145 5.53744 18.4998 7.125 19.3762V19.5C7.125 19.9973 7.32254 20.4742 7.67417 20.8258C8.02581 21.1774 8.50272 21.375 9 21.375H15C15.4973 21.375 15.9742 21.1774 16.3258 20.8258C16.6775 20.4742 16.875 19.9973 16.875 19.5V19.3762C18.4626 18.4998 19.7866 17.2145 20.7098 15.6537C21.633 14.0928 22.1216 12.3134 22.125 10.5C22.125 10.2016 22.0065 9.91547 21.7955 9.70449C21.5845 9.49351 21.2984 9.37499 21 9.37499ZM15.9647 5.63061C14.2447 6.40349 12.8254 7.71873 11.9241 9.37499H9.9375C10.4453 8.25877 11.2631 7.31193 12.2935 6.64713C13.324 5.98232 14.5237 5.62754 15.75 5.62499C15.8212 5.62499 15.8925 5.62499 15.9647 5.63061ZM17.5791 7.41936C17.9164 8.02868 18.1511 8.6894 18.2738 9.37499H14.6372C15.4137 8.45866 16.4336 7.78068 17.5791 7.41936ZM12 4.12499C12.0778 4.12499 12.1547 4.12499 12.2325 4.13061C11.1256 4.62668 10.1354 5.34991 9.32608 6.25339C8.51676 7.15687 7.90643 8.2204 7.53469 9.37499H5.72625C5.99187 7.90384 6.76532 6.57254 7.9118 5.61315C9.05827 4.65376 10.5051 4.1271 12 4.12499ZM15.2812 17.6616C15.0854 17.7513 14.9195 17.8954 14.8031 18.0767C14.6868 18.258 14.625 18.4689 14.625 18.6844V19.125H9.375V18.6844C9.37502 18.4689 9.31319 18.258 9.19686 18.0767C9.08053 17.8954 8.91458 17.7513 8.71875 17.6616C7.52358 17.1105 6.48491 16.2698 5.69696 15.2156C4.909 14.1615 4.39672 12.9273 4.20656 11.625H19.7934C19.6033 12.9273 19.091 14.1615 18.303 15.2156C17.5151 16.2698 16.4764 17.1105 15.2812 17.6616Z" fill="white"/>
</svg>
