<svg width="18" height="18" viewBox="0 0 18 18" fill="none" xmlns="http://www.w3.org/2000/svg">
<g clip-path="url(#clip0_506_861)">
<path d="M15.4483 8.25328C15.4184 8.11953 15.3563 7.99508 15.2675 7.89071C15.1787 7.78633 15.0658 7.70516 14.9385 7.65421L11.3399 6.21492L12.0846 1.25015C12.1119 1.07187 12.0814 0.889524 11.9975 0.729856C11.9136 0.570188 11.7808 0.441603 11.6184 0.362962C11.4561 0.28432 11.2729 0.259762 11.0956 0.292888C10.9183 0.326014 10.7563 0.415081 10.6333 0.547026L2.75831 8.98453C2.6647 9.08477 2.59694 9.20633 2.5609 9.33867C2.52486 9.471 2.52162 9.61013 2.55147 9.744C2.58132 9.87787 2.64336 10.0024 2.7322 10.1069C2.82105 10.2114 2.93403 10.2927 3.06136 10.3437L6.65995 11.783L5.91534 16.7498C5.88801 16.9281 5.91852 17.1105 6.00241 17.2701C6.0863 17.4298 6.21914 17.5584 6.38146 17.637C6.54377 17.7157 6.72702 17.7402 6.90431 17.7071C7.08161 17.674 7.24362 17.5849 7.36659 17.453L15.2416 9.01546C15.3356 8.91492 15.4036 8.7929 15.4396 8.66005C15.4757 8.52719 15.4786 8.38754 15.4483 8.25328ZM7.98745 14.3121L8.42831 11.3752C8.45648 11.1872 8.42036 10.9952 8.32579 10.8303C8.23123 10.6654 8.08377 10.5373 7.90729 10.4667L4.83323 9.23695L10.0124 3.68789L9.57159 6.62484C9.54342 6.81281 9.57954 7.00479 9.6741 7.16967C9.76867 7.33455 9.91613 7.46267 10.0926 7.53328L13.1667 8.76304L7.98745 14.3121Z" fill="black"/>
</g>
<defs>
<clipPath id="clip0_506_861">
<rect width="18" height="18" fill="white"/>
</clipPath>
</defs>
</svg>
