<svg width="24" height="24" viewBox="0 0 24 24" fill="none" xmlns="http://www.w3.org/2000/svg">
<path d="M22.4391 6.57003C22.3627 6.33163 22.2169 6.12147 22.0203 5.96648C21.8237 5.81148 21.5853 5.7187 21.3357 5.70003L17.8726 5.42628L16.5404 2.27065C16.4431 2.04214 16.2807 1.84727 16.0735 1.7103C15.8663 1.57333 15.6234 1.50031 15.3751 1.50031C15.1267 1.50031 14.8838 1.57333 14.6766 1.7103C14.4694 1.84727 14.307 2.04214 14.2097 2.27065L12.8776 5.42628L9.41443 5.70003C9.16574 5.71835 8.92815 5.81032 8.73194 5.96422C8.53574 6.11811 8.38981 6.32695 8.31277 6.56411C8.23573 6.80127 8.23106 7.056 8.29937 7.29582C8.36768 7.53564 8.50586 7.74968 8.6963 7.91065L11.3269 10.1307L10.5244 13.4485C10.4661 13.6887 10.4803 13.9409 10.5655 14.1731C10.6506 14.4053 10.8027 14.6069 11.0026 14.7525C11.2043 14.9012 11.4455 14.9867 11.6959 14.9982C11.9462 15.0098 12.1943 14.9468 12.4088 14.8172L15.3751 13.0313L18.3422 14.8182C18.5569 14.9473 18.8049 15.0101 19.0552 14.9986C19.3054 14.9871 19.5466 14.9018 19.7485 14.7535C19.948 14.6076 20.0998 14.4058 20.1847 14.1737C20.2696 13.9417 20.2839 13.6896 20.2257 13.4494L19.4232 10.1316L22.0538 7.91159C22.2443 7.75176 22.3827 7.53868 22.4514 7.29967C22.52 7.06066 22.5158 6.8066 22.4391 6.57003ZM18.1013 9.28128C17.9949 9.37122 17.9156 9.48903 17.8724 9.62151C17.8292 9.75398 17.8237 9.89588 17.8566 10.0313L18.6329 13.2385L15.7622 11.5125C15.6455 11.4423 15.5118 11.4051 15.3755 11.4051C15.2393 11.4051 15.1056 11.4423 14.9888 11.5125L12.1182 13.2403L12.8944 10.0313C12.9272 9.89579 12.9216 9.75384 12.8782 9.62136C12.8349 9.48888 12.7554 9.37111 12.6488 9.28128L10.1251 7.14941L13.4551 6.88597C13.5921 6.87509 13.7235 6.82675 13.835 6.74623C13.9464 6.66571 14.0336 6.55611 14.0869 6.4294L15.3751 3.36659L16.6679 6.4294C16.7212 6.55611 16.8084 6.66571 16.9198 6.74623C17.0313 6.82675 17.1627 6.87509 17.2997 6.88597L20.6307 7.14941L18.1013 9.28128ZM8.25755 11.5482L2.78068 17.0307C2.63995 17.1714 2.44907 17.2504 2.25005 17.2504C2.05103 17.2504 1.86016 17.1714 1.71943 17.0307C1.5787 16.8899 1.49963 16.6991 1.49963 16.5C1.49963 16.301 1.5787 16.1101 1.71943 15.9694L7.19911 10.4897C7.33984 10.349 7.53072 10.2699 7.72974 10.2699C7.92876 10.2699 8.11963 10.349 8.26036 10.4897C8.40109 10.6304 8.48015 10.8213 8.48015 11.0203C8.48015 11.2194 8.40109 11.4102 8.26036 11.551L8.25755 11.5482ZM9.27099 16.2235C9.41153 16.3641 9.49048 16.5548 9.49048 16.7536C9.49048 16.9525 9.41153 17.1431 9.27099 17.2838L4.28068 22.2807C4.21099 22.3503 4.12827 22.4056 4.03722 22.4433C3.94618 22.481 3.8486 22.5004 3.75005 22.5004C3.6515 22.5004 3.55392 22.481 3.46288 22.4433C3.37183 22.4056 3.28911 22.3503 3.21943 22.2807C3.14974 22.211 3.09447 22.1282 3.05676 22.0372C3.01904 21.9462 2.99963 21.8486 2.99963 21.75C2.99963 21.6515 3.01904 21.5539 3.05676 21.4629C3.09447 21.3718 3.14974 21.2891 3.21943 21.2194L8.21349 16.2263C8.35413 16.0857 8.54482 16.0068 8.74364 16.0068C8.94247 16.0068 9.13316 16.0857 9.2738 16.2263L9.27099 16.2235ZM16.1147 16.1297C16.1845 16.1994 16.2398 16.2821 16.2775 16.3731C16.3153 16.4642 16.3347 16.5618 16.3347 16.6603C16.3347 16.7589 16.3153 16.8565 16.2775 16.9475C16.2398 17.0386 16.1845 17.1213 16.1147 17.191L11.026 22.2797C10.8853 22.4204 10.6944 22.4995 10.4954 22.4995C10.2963 22.4995 10.1055 22.4204 9.96474 22.2797C9.82401 22.139 9.74495 21.9481 9.74495 21.7491C9.74495 21.5501 9.82401 21.3592 9.96474 21.2185L15.0544 16.1297C15.1242 16.0595 15.2072 16.0038 15.2986 15.9658C15.3901 15.9278 15.4881 15.9082 15.5871 15.9083C15.6861 15.9084 15.7841 15.9281 15.8755 15.9663C15.9669 16.0044 16.0498 16.0603 16.1194 16.1307L16.1147 16.1297Z" fill="black"/>
</svg>
